<?xml version="1.0" encoding="UTF-8"?>
<svg version="1.1" xmlns="http://www.w3.org/2000/svg" width="740" height="740">
<path d="M0 0 C244.2 0 488.4 0 740 0 C740 244.2 740 488.4 740 740 C495.8 740 251.6 740 0 740 C0 495.8 0 251.6 0 0 Z " fill="#FEFEFE" transform="translate(0,0)"/>
<path d="M0 0 C0.75932048 -0.00297112 1.51864096 -0.00594224 2.30097115 -0.0090034 C4.82322766 -0.01761474 7.3454363 -0.01919216 9.8677063 -0.02069092 C11.68515116 -0.02532432 13.50259506 -0.03034968 15.32003784 -0.03573608 C20.24156584 -0.04880854 25.16308023 -0.0552945 30.08462286 -0.05974674 C33.16290435 -0.06268477 36.24118218 -0.06679085 39.31946182 -0.07125092 C48.96127074 -0.08490996 58.60307122 -0.09458538 68.24488914 -0.09845281 C79.35620203 -0.10293497 90.467392 -0.12049697 101.57866752 -0.1494534 C110.18188886 -0.1710922 118.78507565 -0.1811582 127.3883239 -0.18249393 C132.52051603 -0.18354003 137.65259235 -0.18940686 142.78475571 -0.20731354 C147.61275772 -0.22383309 152.44055731 -0.22593089 157.26857758 -0.21717453 C159.0349774 -0.21640634 160.8013883 -0.22071801 162.56776047 -0.23063278 C171.41671255 -0.27736947 179.71722385 -0.31369718 188.04397583 3.14044189 C188.04397583 3.80044189 188.04397583 4.46044189 188.04397583 5.14044189 C190.02397583 5.80044189 192.00397583 6.46044189 194.04397583 7.14044189 C194.04397583 7.80044189 194.04397583 8.46044189 194.04397583 9.14044189 C194.70397583 9.14044189 195.36397583 9.14044189 196.04397583 9.14044189 C196.04397583 9.80044189 196.04397583 10.46044189 196.04397583 11.14044189 C196.70397583 11.14044189 197.36397583 11.14044189 198.04397583 11.14044189 C198.04397583 11.80044189 198.04397583 12.46044189 198.04397583 13.14044189 C198.70397583 13.14044189 199.36397583 13.14044189 200.04397583 13.14044189 C200.04397583 13.80044189 200.04397583 14.46044189 200.04397583 15.14044189 C200.70397583 15.14044189 201.36397583 15.14044189 202.04397583 15.14044189 C202.04397583 15.80044189 202.04397583 16.46044189 202.04397583 17.14044189 C202.70397583 17.14044189 203.36397583 17.14044189 204.04397583 17.14044189 C204.04397583 17.80044189 204.04397583 18.46044189 204.04397583 19.14044189 C204.70397583 19.14044189 205.36397583 19.14044189 206.04397583 19.14044189 C206.04397583 19.80044189 206.04397583 20.46044189 206.04397583 21.14044189 C206.70397583 21.14044189 207.36397583 21.14044189 208.04397583 21.14044189 C208.04397583 21.80044189 208.04397583 22.46044189 208.04397583 23.14044189 C209.36397583 23.14044189 210.68397583 23.14044189 212.04397583 23.14044189 C212.04397583 23.80044189 212.04397583 24.46044189 212.04397583 25.14044189 C212.70397583 25.14044189 213.36397583 25.14044189 214.04397583 25.14044189 C214.04397583 25.80044189 214.04397583 26.46044189 214.04397583 27.14044189 C214.70397583 27.14044189 215.36397583 27.14044189 216.04397583 27.14044189 C216.04397583 27.80044189 216.04397583 28.46044189 216.04397583 29.14044189 C216.70397583 29.14044189 217.36397583 29.14044189 218.04397583 29.14044189 C218.04397583 29.80044189 218.04397583 30.46044189 218.04397583 31.14044189 C218.70397583 31.14044189 219.36397583 31.14044189 220.04397583 31.14044189 C220.04397583 31.80044189 220.04397583 32.46044189 220.04397583 33.14044189 C220.70397583 33.14044189 221.36397583 33.14044189 222.04397583 33.14044189 C222.04397583 33.80044189 222.04397583 34.46044189 222.04397583 35.14044189 C222.70397583 35.14044189 223.36397583 35.14044189 224.04397583 35.14044189 C224.04397583 35.80044189 224.04397583 36.46044189 224.04397583 37.14044189 C224.70397583 37.14044189 225.36397583 37.14044189 226.04397583 37.14044189 C226.04397583 37.80044189 226.04397583 38.46044189 226.04397583 39.14044189 C226.70397583 39.14044189 227.36397583 39.14044189 228.04397583 39.14044189 C228.04397583 39.80044189 228.04397583 40.46044189 228.04397583 41.14044189 C228.91022583 41.29512939 228.91022583 41.29512939 229.79397583 41.45294189 C232.40058741 42.24940654 234.01750693 43.33109466 236.04397583 45.14044189 C236.04397583 45.80044189 236.04397583 46.46044189 236.04397583 47.14044189 C236.70397583 47.14044189 237.36397583 47.14044189 238.04397583 47.14044189 C238.04397583 47.80044189 238.04397583 48.46044189 238.04397583 49.14044189 C238.70397583 49.14044189 239.36397583 49.14044189 240.04397583 49.14044189 C240.04397583 49.80044189 240.04397583 50.46044189 240.04397583 51.14044189 C241.36397583 51.47044189 242.68397583 51.80044189 244.04397583 52.14044189 C244.04397583 52.80044189 244.04397583 53.46044189 244.04397583 54.14044189 C244.99272583 54.44981689 245.94147583 54.75919189 246.91897583 55.07794189 C250.04397583 56.14044189 250.04397583 56.14044189 252.04397583 57.14044189 C252.04397583 57.80044189 252.04397583 58.46044189 252.04397583 59.14044189 C253.14796408 59.14283025 254.25195232 59.1452186 255.38939476 59.14767933 C282.26451338 59.20650052 309.13954254 59.28239965 336.01456261 59.37615681 C349.01117517 59.42110279 362.0077604 59.4605203 375.00442505 59.48687744 C386.3336593 59.50986712 397.66280698 59.54327617 408.99197257 59.58914346 C414.98944671 59.6130624 420.98683519 59.63179996 426.98435593 59.6380558 C432.63306648 59.64411255 438.28155787 59.66413417 443.93018723 59.69471741 C445.99972002 59.70348809 448.06928147 59.70722223 450.13883209 59.70545006 C452.97321762 59.70378975 455.80694097 59.72056105 458.64123535 59.74171448 C459.45255177 59.7368669 460.26386819 59.73201933 461.09976995 59.72702485 C467.13172523 59.80088173 472.35710842 61.17360419 478.04397583 63.14044189 C478.04397583 63.80044189 478.04397583 64.46044189 478.04397583 65.14044189 C478.70397583 65.14044189 479.36397583 65.14044189 480.04397583 65.14044189 C480.04397583 65.80044189 480.04397583 66.46044189 480.04397583 67.14044189 C480.70397583 67.14044189 481.36397583 67.14044189 482.04397583 67.14044189 C482.04397583 67.80044189 482.04397583 68.46044189 482.04397583 69.14044189 C482.70397583 69.14044189 483.36397583 69.14044189 484.04397583 69.14044189 C484.04397583 69.80044189 484.04397583 70.46044189 484.04397583 71.14044189 C484.70397583 71.14044189 485.36397583 71.14044189 486.04397583 71.14044189 C489.71034961 77.40753063 490.60394545 81.91212834 490.43460083 89.10919189 C490.42611115 90.49056335 490.42611115 90.49056335 490.41744995 91.89984131 C490.39522819 94.81392496 490.34505966 97.72673586 490.29397583 100.64044189 C490.27389243 102.62740318 490.25564489 104.61438393 490.23928833 106.60137939 C490.19541013 111.44821689 490.12648272 116.29411432 490.04397583 121.14044189 C490.82800781 121.13155945 491.61203979 121.122677 492.41983032 121.11352539 C499.83424026 121.03314111 507.24843678 120.97235725 514.66316986 120.93319321 C518.47454018 120.9123811 522.28554829 120.88418193 526.09671021 120.83868408 C529.77961247 120.7949961 533.46216791 120.7712569 537.14530945 120.76093292 C538.54546055 120.7535824 539.94559419 120.73922892 541.34559631 120.71752167 C549.34933528 120.59843789 555.21645277 120.75565486 562.04397583 125.14044189 C562.04397583 125.80044189 562.04397583 126.46044189 562.04397583 127.14044189 C562.70397583 127.14044189 563.36397583 127.14044189 564.04397583 127.14044189 C564.04397583 127.80044189 564.04397583 128.46044189 564.04397583 129.14044189 C564.70397583 129.14044189 565.36397583 129.14044189 566.04397583 129.14044189 C566.04397583 129.80044189 566.04397583 130.46044189 566.04397583 131.14044189 C566.70397583 131.14044189 567.36397583 131.14044189 568.04397583 131.14044189 C568.04397583 132.46044189 568.04397583 133.78044189 568.04397583 135.14044189 C568.70397583 135.14044189 569.36397583 135.14044189 570.04397583 135.14044189 C573.68972752 140.98521842 572.69242644 149.28327877 571.59085083 155.83575439 C571.14262404 157.62225832 570.60533462 159.38619567 570.04397583 161.14044189 C569.38397583 161.14044189 568.72397583 161.14044189 568.04397583 161.14044189 C568.04397583 163.12044189 568.04397583 165.10044189 568.04397583 167.14044189 C567.38397583 167.14044189 566.72397583 167.14044189 566.04397583 167.14044189 C566.10585083 168.93481689 566.10585083 168.93481689 566.16897583 170.76544189 C566.18249291 174.56374142 565.46407336 177.59019807 564.04397583 181.14044189 C563.38397583 181.14044189 562.72397583 181.14044189 562.04397583 181.14044189 C562.04397583 183.12044189 562.04397583 185.10044189 562.04397583 187.14044189 C561.38397583 187.14044189 560.72397583 187.14044189 560.04397583 187.14044189 C560.04397583 190.44044189 560.04397583 193.74044189 560.04397583 197.14044189 C559.38397583 197.14044189 558.72397583 197.14044189 558.04397583 197.14044189 C558.04397583 199.12044189 558.04397583 201.10044189 558.04397583 203.14044189 C557.38397583 203.14044189 556.72397583 203.14044189 556.04397583 203.14044189 C556.04397583 205.78044189 556.04397583 208.42044189 556.04397583 211.14044189 C555.38397583 211.14044189 554.72397583 211.14044189 554.04397583 211.14044189 C554.04397583 213.12044189 554.04397583 215.10044189 554.04397583 217.14044189 C553.38397583 217.14044189 552.72397583 217.14044189 552.04397583 217.14044189 C552.04397583 219.78044189 552.04397583 222.42044189 552.04397583 225.14044189 C551.38397583 225.14044189 550.72397583 225.14044189 550.04397583 225.14044189 C550.10585083 226.93481689 550.10585083 226.93481689 550.16897583 228.76544189 C550.18249291 232.56374142 549.46407336 235.59019807 548.04397583 239.14044189 C547.38397583 239.14044189 546.72397583 239.14044189 546.04397583 239.14044189 C546.10585083 240.93481689 546.10585083 240.93481689 546.16897583 242.76544189 C546.18249291 246.56374142 545.46407336 249.59019807 544.04397583 253.14044189 C543.38397583 253.14044189 542.72397583 253.14044189 542.04397583 253.14044189 C542.04397583 255.78044189 542.04397583 258.42044189 542.04397583 261.14044189 C541.38397583 261.14044189 540.72397583 261.14044189 540.04397583 261.14044189 C540.13292114 262.81106689 540.13292114 262.81106689 540.22366333 264.51544189 C540.22137583 269.71263145 538.76679823 274.23549872 537.16897583 279.14044189 C536.62817738 280.84822648 536.08909188 282.55655452 535.55178833 284.26544189 C535.2942981 285.08012939 535.03680786 285.89481689 534.77151489 286.73419189 C533.73112362 290.17516383 532.87760399 293.64405969 532.04397583 297.14044189 C531.38397583 297.14044189 530.72397583 297.14044189 530.04397583 297.14044189 C530.08522583 298.33669189 530.12647583 299.53294189 530.16897583 300.76544189 C530.18249291 304.56374142 529.46407336 307.59019807 528.04397583 311.14044189 C527.38397583 311.14044189 526.72397583 311.14044189 526.04397583 311.14044189 C526.04397583 313.78044189 526.04397583 316.42044189 526.04397583 319.14044189 C525.38397583 319.14044189 524.72397583 319.14044189 524.04397583 319.14044189 C524.16772583 320.74919189 524.16772583 320.74919189 524.29397583 322.39044189 C524.33665569 328.3229419 522.09345696 333.6507603 520.04397583 339.14044189 C519.38397583 339.14044189 518.72397583 339.14044189 518.04397583 339.14044189 C518.11938599 340.83427002 518.11938599 340.83427002 518.19631958 342.56231689 C518.19524248 347.45235635 517.01386983 351.73789976 515.60647583 356.39044189 C515.14924458 357.95809191 514.69220655 359.52579829 514.23538208 361.09356689 C514.03114624 361.77580322 513.8269104 362.45803955 513.6164856 363.16094971 C513.04298888 365.14385434 512.53242955 367.13506336 512.04397583 369.14044189 C511.38397583 369.14044189 510.72397583 369.14044189 510.04397583 369.14044189 C510.04397583 371.78044189 510.04397583 374.42044189 510.04397583 377.14044189 C509.38397583 377.14044189 508.72397583 377.14044189 508.04397583 377.14044189 C508.04397583 379.12044189 508.04397583 381.10044189 508.04397583 383.14044189 C507.38397583 383.14044189 506.72397583 383.14044189 506.04397583 383.14044189 C506.04397583 385.78044189 506.04397583 388.42044189 506.04397583 391.14044189 C505.38397583 391.14044189 504.72397583 391.14044189 504.04397583 391.14044189 C504.04397583 393.12044189 504.04397583 395.10044189 504.04397583 397.14044189 C503.38397583 397.14044189 502.72397583 397.14044189 502.04397583 397.14044189 C502.04397583 399.78044189 502.04397583 402.42044189 502.04397583 405.14044189 C501.38397583 405.14044189 500.72397583 405.14044189 500.04397583 405.14044189 C500.08522583 406.33669189 500.12647583 407.53294189 500.16897583 408.76544189 C500.18249291 412.56374142 499.46407336 415.59019807 498.04397583 419.14044189 C497.38397583 419.14044189 496.72397583 419.14044189 496.04397583 419.14044189 C496.04397583 421.78044189 496.04397583 424.42044189 496.04397583 427.14044189 C495.38397583 427.14044189 494.72397583 427.14044189 494.04397583 427.14044189 C494.04397583 429.12044189 494.04397583 431.10044189 494.04397583 433.14044189 C493.38397583 433.14044189 492.72397583 433.14044189 492.04397583 433.14044189 C492.10585083 434.87294189 492.10585083 434.87294189 492.16897583 436.64044189 C492.18485016 441.0852549 491.26190688 444.87768321 490.04397583 449.14044189 C489.38397583 449.14044189 488.72397583 449.14044189 488.04397583 449.14044189 C488.04397583 451.78044189 488.04397583 454.42044189 488.04397583 457.14044189 C487.38397583 457.14044189 486.72397583 457.14044189 486.04397583 457.14044189 C486.04397583 458.46044189 486.04397583 459.78044189 486.04397583 461.14044189 C485.38397583 461.14044189 484.72397583 461.14044189 484.04397583 461.14044189 C484.04397583 461.80044189 484.04397583 462.46044189 484.04397583 463.14044189 C483.38397583 463.14044189 482.72397583 463.14044189 482.04397583 463.14044189 C482.04397583 463.80044189 482.04397583 464.46044189 482.04397583 465.14044189 C481.38397583 465.14044189 480.72397583 465.14044189 480.04397583 465.14044189 C480.04397583 465.80044189 480.04397583 466.46044189 480.04397583 467.14044189 C479.38397583 467.14044189 478.72397583 467.14044189 478.04397583 467.14044189 C478.04397583 467.80044189 478.04397583 468.46044189 478.04397583 469.14044189 C477.38397583 469.14044189 476.72397583 469.14044189 476.04397583 469.14044189 C476.04397583 469.80044189 476.04397583 470.46044189 476.04397583 471.14044189 C474.72397583 471.14044189 473.40397583 471.14044189 472.04397583 471.14044189 C472.04397583 471.80044189 472.04397583 472.46044189 472.04397583 473.14044189 C468.12294602 474.42371279 464.17969943 474.27892883 460.10344124 474.26628304 C459.29358082 474.26773648 458.4837204 474.26918992 457.64931875 474.2706874 C454.91839521 474.27435517 452.1875272 474.27085735 449.456604 474.26742554 C447.48577307 474.26857705 445.51494235 474.27016478 443.54411209 474.27215278 C438.1147751 474.27634201 432.6854556 474.27425721 427.25611854 474.27116656 C421.40598413 474.26891102 415.5558528 474.27239287 409.70571899 474.27514648 C398.23934613 474.27960167 386.77297979 474.27862878 375.30660667 474.27573384 C365.98943685 474.27347861 356.67226888 474.27316781 347.35509872 474.27425766 C346.69357067 474.27433405 346.03204262 474.27441043 345.35046826 474.27448913 C342.66522014 474.27480046 339.97997203 474.27511886 337.29472391 474.27544889 C312.09272271 474.27850949 286.89072507 474.27573203 261.68872442 474.270352 C239.29265397 474.26560732 216.8965892 474.26602991 194.5005188 474.27081299 C169.34820432 474.27616673 144.195893 474.27829135 119.04357803 474.27520072 C116.36254684 474.27488 113.68151565 474.27456716 111.00048447 474.27425766 C109.68126398 474.27410338 108.3620435 474.27394911 107.00284664 474.27379016 C97.69514543 474.27292583 88.38744706 474.2743861 79.07974625 474.27673721 C67.73908529 474.27953879 56.39843126 474.27878941 45.0577711 474.27345647 C39.26878439 474.27082415 33.47980923 474.26980648 27.6908226 474.27310562 C22.39474979 474.27607824 17.09869928 474.27445953 11.8026285 474.26912807 C9.88340793 474.26800802 7.96418549 474.26858599 6.04496612 474.27100386 C3.44201463 474.27403236 0.83914013 474.27093779 -1.7638073 474.26628304 C-2.51377895 474.2686242 -3.26375059 474.27096537 -4.03644866 474.27337748 C-8.11386068 474.25874531 -11.95543436 473.93177658 -15.95602417 473.14044189 C-15.95602417 472.48044189 -15.95602417 471.82044189 -15.95602417 471.14044189 C-17.27602417 471.14044189 -18.59602417 471.14044189 -19.95602417 471.14044189 C-19.95602417 470.48044189 -19.95602417 469.82044189 -19.95602417 469.14044189 C-20.61602417 469.14044189 -21.27602417 469.14044189 -21.95602417 469.14044189 C-21.95602417 468.48044189 -21.95602417 467.82044189 -21.95602417 467.14044189 C-22.61602417 467.14044189 -23.27602417 467.14044189 -23.95602417 467.14044189 C-23.95602417 466.48044189 -23.95602417 465.82044189 -23.95602417 465.14044189 C-24.61602417 465.14044189 -25.27602417 465.14044189 -25.95602417 465.14044189 C-25.95602417 464.48044189 -25.95602417 463.82044189 -25.95602417 463.14044189 C-26.61602417 463.14044189 -27.27602417 463.14044189 -27.95602417 463.14044189 C-27.95602417 461.82044189 -27.95602417 460.50044189 -27.95602417 459.14044189 C-28.61602417 459.14044189 -29.27602417 459.14044189 -29.95602417 459.14044189 C-31.76242825 454.49255575 -32.20795105 450.62049852 -32.21329308 445.64656258 C-32.21679915 444.9092821 -32.22030522 444.17200163 -32.22391754 443.41237932 C-32.23322602 440.94032066 -32.22830969 438.46849787 -32.22344971 435.99642944 C-32.22718624 434.20678734 -32.23178777 432.41714687 -32.23718035 430.627509 C-32.24942525 425.70820828 -32.24914813 420.78897549 -32.2467916 415.869663 C-32.24638382 410.56485172 -32.25741886 405.26006233 -32.26690674 399.95526123 C-32.28352545 389.56198799 -32.28901666 379.16873744 -32.29013149 368.77545203 C-32.29108147 360.32886328 -32.29518925 351.88228203 -32.30153275 343.43569565 C-32.31914685 319.49517872 -32.32837125 295.55467972 -32.3268718 271.61415626 C-32.32679189 270.32329439 -32.32671197 269.03243251 -32.32662964 267.70245361 C-32.32654788 266.41001829 -32.32646612 265.11758298 -32.32638188 263.78598295 C-32.32556873 242.8337258 -32.3447131 221.8815405 -32.37290637 200.92930414 C-32.40161764 179.42267442 -32.41544766 157.91607976 -32.41371882 136.40943038 C-32.41305435 124.33222983 -32.41857158 112.25510461 -32.44007492 100.1779213 C-32.4582635 89.89647551 -32.46265309 79.61513922 -32.44905607 69.33368434 C-32.44251496 64.08713454 -32.44245058 58.84079494 -32.45976257 53.59426498 C-32.47544748 48.79149247 -32.47267658 43.98909764 -32.45519431 39.1863346 C-32.45211432 37.44883096 -32.45579426 35.71129946 -32.46691446 33.97382869 C-32.56265253 17.95442761 -32.56265253 17.95442761 -27.95602417 11.14044189 C-27.29602417 11.14044189 -26.63602417 11.14044189 -25.95602417 11.14044189 C-25.62602417 9.82044189 -25.29602417 8.50044189 -24.95602417 7.14044189 C-23.96602417 7.14044189 -22.97602417 7.14044189 -21.95602417 7.14044189 C-21.58477417 6.21231689 -21.58477417 6.21231689 -21.20602417 5.26544189 C-19.65371724 2.62652012 -18.84615475 2.12917078 -15.95602417 1.14044189 C-10.61311167 0.34730838 -5.40332223 -0.00675019 0 0 Z " fill="#FDCE00" transform="translate(99.95602416992188,132.85955810546875)"/>
<path d="M0 0 C0.75932048 -0.00297112 1.51864096 -0.00594224 2.30097115 -0.0090034 C4.82322766 -0.01761474 7.3454363 -0.01919216 9.8677063 -0.02069092 C11.68515116 -0.02532432 13.50259506 -0.03034968 15.32003784 -0.03573608 C20.24156584 -0.04880854 25.16308023 -0.0552945 30.08462286 -0.05974674 C33.16290435 -0.06268477 36.24118218 -0.06679085 39.31946182 -0.07125092 C48.96127074 -0.08490996 58.60307122 -0.09458538 68.24488914 -0.09845281 C79.35620203 -0.10293497 90.467392 -0.12049697 101.57866752 -0.1494534 C110.18188886 -0.1710922 118.78507565 -0.1811582 127.3883239 -0.18249393 C132.52051603 -0.18354003 137.65259235 -0.18940686 142.78475571 -0.20731354 C147.61275772 -0.22383309 152.44055731 -0.22593089 157.26857758 -0.21717453 C159.0349774 -0.21640634 160.8013883 -0.22071801 162.56776047 -0.23063278 C171.41671255 -0.27736947 179.71722385 -0.31369718 188.04397583 3.14044189 C188.04397583 3.80044189 188.04397583 4.46044189 188.04397583 5.14044189 C190.02397583 5.80044189 192.00397583 6.46044189 194.04397583 7.14044189 C194.04397583 7.80044189 194.04397583 8.46044189 194.04397583 9.14044189 C194.70397583 9.14044189 195.36397583 9.14044189 196.04397583 9.14044189 C196.04397583 9.80044189 196.04397583 10.46044189 196.04397583 11.14044189 C196.70397583 11.14044189 197.36397583 11.14044189 198.04397583 11.14044189 C198.04397583 11.80044189 198.04397583 12.46044189 198.04397583 13.14044189 C198.70397583 13.14044189 199.36397583 13.14044189 200.04397583 13.14044189 C200.04397583 13.80044189 200.04397583 14.46044189 200.04397583 15.14044189 C200.70397583 15.14044189 201.36397583 15.14044189 202.04397583 15.14044189 C202.04397583 15.80044189 202.04397583 16.46044189 202.04397583 17.14044189 C202.70397583 17.14044189 203.36397583 17.14044189 204.04397583 17.14044189 C204.04397583 17.80044189 204.04397583 18.46044189 204.04397583 19.14044189 C204.70397583 19.14044189 205.36397583 19.14044189 206.04397583 19.14044189 C206.04397583 19.80044189 206.04397583 20.46044189 206.04397583 21.14044189 C206.70397583 21.14044189 207.36397583 21.14044189 208.04397583 21.14044189 C208.04397583 21.80044189 208.04397583 22.46044189 208.04397583 23.14044189 C209.36397583 23.14044189 210.68397583 23.14044189 212.04397583 23.14044189 C212.04397583 23.80044189 212.04397583 24.46044189 212.04397583 25.14044189 C212.70397583 25.14044189 213.36397583 25.14044189 214.04397583 25.14044189 C214.04397583 25.80044189 214.04397583 26.46044189 214.04397583 27.14044189 C214.70397583 27.14044189 215.36397583 27.14044189 216.04397583 27.14044189 C216.04397583 27.80044189 216.04397583 28.46044189 216.04397583 29.14044189 C216.70397583 29.14044189 217.36397583 29.14044189 218.04397583 29.14044189 C218.04397583 29.80044189 218.04397583 30.46044189 218.04397583 31.14044189 C218.70397583 31.14044189 219.36397583 31.14044189 220.04397583 31.14044189 C220.04397583 31.80044189 220.04397583 32.46044189 220.04397583 33.14044189 C220.70397583 33.14044189 221.36397583 33.14044189 222.04397583 33.14044189 C222.04397583 33.80044189 222.04397583 34.46044189 222.04397583 35.14044189 C222.70397583 35.14044189 223.36397583 35.14044189 224.04397583 35.14044189 C224.04397583 35.80044189 224.04397583 36.46044189 224.04397583 37.14044189 C224.70397583 37.14044189 225.36397583 37.14044189 226.04397583 37.14044189 C226.04397583 37.80044189 226.04397583 38.46044189 226.04397583 39.14044189 C226.70397583 39.14044189 227.36397583 39.14044189 228.04397583 39.14044189 C228.04397583 39.80044189 228.04397583 40.46044189 228.04397583 41.14044189 C228.91022583 41.29512939 228.91022583 41.29512939 229.79397583 41.45294189 C232.40058741 42.24940654 234.01750693 43.33109466 236.04397583 45.14044189 C236.04397583 45.80044189 236.04397583 46.46044189 236.04397583 47.14044189 C236.70397583 47.14044189 237.36397583 47.14044189 238.04397583 47.14044189 C238.04397583 47.80044189 238.04397583 48.46044189 238.04397583 49.14044189 C238.70397583 49.14044189 239.36397583 49.14044189 240.04397583 49.14044189 C240.04397583 49.80044189 240.04397583 50.46044189 240.04397583 51.14044189 C241.36397583 51.47044189 242.68397583 51.80044189 244.04397583 52.14044189 C244.04397583 52.80044189 244.04397583 53.46044189 244.04397583 54.14044189 C244.99272583 54.44981689 245.94147583 54.75919189 246.91897583 55.07794189 C250.04397583 56.14044189 250.04397583 56.14044189 252.04397583 57.14044189 C252.04397583 57.80044189 252.04397583 58.46044189 252.04397583 59.14044189 C253.14796408 59.14283025 254.25195232 59.1452186 255.38939476 59.14767933 C282.26451338 59.20650052 309.13954254 59.28239965 336.01456261 59.37615681 C349.01117517 59.42110279 362.0077604 59.4605203 375.00442505 59.48687744 C386.3336593 59.50986712 397.66280698 59.54327617 408.99197257 59.58914346 C414.98944671 59.6130624 420.98683519 59.63179996 426.98435593 59.6380558 C432.63306648 59.64411255 438.28155787 59.66413417 443.93018723 59.69471741 C445.99972002 59.70348809 448.06928147 59.70722223 450.13883209 59.70545006 C452.97321762 59.70378975 455.80694097 59.72056105 458.64123535 59.74171448 C459.45255177 59.7368669 460.26386819 59.73201933 461.09976995 59.72702485 C467.13172523 59.80088173 472.35710842 61.17360419 478.04397583 63.14044189 C478.04397583 63.80044189 478.04397583 64.46044189 478.04397583 65.14044189 C478.70397583 65.14044189 479.36397583 65.14044189 480.04397583 65.14044189 C480.04397583 65.80044189 480.04397583 66.46044189 480.04397583 67.14044189 C480.70397583 67.14044189 481.36397583 67.14044189 482.04397583 67.14044189 C482.04397583 67.80044189 482.04397583 68.46044189 482.04397583 69.14044189 C482.70397583 69.14044189 483.36397583 69.14044189 484.04397583 69.14044189 C484.04397583 69.80044189 484.04397583 70.46044189 484.04397583 71.14044189 C484.70397583 71.14044189 485.36397583 71.14044189 486.04397583 71.14044189 C489.71034961 77.40753063 490.60394545 81.91212834 490.43460083 89.10919189 C490.42611115 90.49056335 490.42611115 90.49056335 490.41744995 91.89984131 C490.39522819 94.81392496 490.34505966 97.72673586 490.29397583 100.64044189 C490.27389243 102.62740318 490.25564489 104.61438393 490.23928833 106.60137939 C490.19882733 111.44860707 490.12051256 116.29311598 490.04397583 121.14044189 C480.80397583 121.14044189 471.56397583 121.14044189 462.04397583 121.14044189 C462.04397583 117.84044189 462.04397583 114.54044189 462.04397583 111.14044189 C461.38397583 111.14044189 460.72397583 111.14044189 460.04397583 111.14044189 C460.04397583 110.48044189 460.04397583 109.82044189 460.04397583 109.14044189 C459.38397583 109.14044189 458.72397583 109.14044189 458.04397583 109.14044189 C458.04397583 108.48044189 458.04397583 107.82044189 458.04397583 107.14044189 C457.38397583 107.14044189 456.72397583 107.14044189 456.04397583 107.14044189 C456.04397583 106.48044189 456.04397583 105.82044189 456.04397583 105.14044189 C454.72397583 105.14044189 453.40397583 105.14044189 452.04397583 105.14044189 C452.04397583 102.50044189 452.04397583 99.86044189 452.04397583 97.14044189 C451.38397583 97.14044189 450.72397583 97.14044189 450.04397583 97.14044189 C450.04397583 96.48044189 450.04397583 95.82044189 450.04397583 95.14044189 C448.72397583 95.14044189 447.40397583 95.14044189 446.04397583 95.14044189 C446.04397583 94.48044189 446.04397583 93.82044189 446.04397583 93.14044189 C304.80397583 93.14044189 163.56397583 93.14044189 18.04397583 93.14044189 C18.04397583 93.80044189 18.04397583 94.46044189 18.04397583 95.14044189 C16.72397583 95.14044189 15.40397583 95.14044189 14.04397583 95.14044189 C12.83780209 98.90976435 12.90286792 102.63669602 12.91267395 106.55056763 C12.91055824 107.29956459 12.90844252 108.04856156 12.9062627 108.8202554 C12.90026818 111.33178406 12.90126248 113.84326241 12.90213013 116.35479736 C12.89909809 118.15530991 12.89557651 119.95582169 12.89160156 121.7563324 C12.88371274 125.63645386 12.87856757 129.51656613 12.8753109 133.39669418 C12.86939411 139.54219108 12.8528452 145.68763025 12.83396912 151.83309937 C12.82763149 153.93889424 12.82130587 156.04468914 12.81499195 158.15048409 C12.81182614 159.20520668 12.80866033 160.25992928 12.80539858 161.34661317 C12.7633734 175.65222798 12.73037626 189.95781638 12.7180481 204.26348877 C12.70964619 213.91399302 12.68707374 223.56435468 12.64869243 233.2147876 C12.62899751 238.31699468 12.61650518 243.41898892 12.62152672 248.52123642 C12.62620108 253.32959892 12.61221664 258.1375593 12.58451462 262.94584084 C12.57764852 264.70086281 12.5774263 266.45592677 12.58471489 268.21094704 C12.62490544 278.98537065 11.52679975 287.85990886 8.04397583 298.14044189 C7.16764031 301.53495987 6.48183742 304.96888308 5.75491333 308.39825439 C5.04397583 311.14044189 5.04397583 311.14044189 4.05178833 313.01934814 C2.54975109 316.18061256 2.1194678 319.52844848 1.54397583 322.95294189 C0.65910645 328.13088636 -0.43102495 333.10079602 -1.95602417 338.14044189 C-2.21383667 339.01829346 -2.47164917 339.89614502 -2.73727417 340.80059814 C-2.97446167 341.59337158 -3.21164917 342.38614502 -3.45602417 343.20294189 C-3.81180542 344.39596924 -3.81180542 344.39596924 -4.17477417 345.61309814 C-4.72929327 347.40696743 -5.31898732 349.19013133 -5.93258667 350.96466064 C-7.09331694 354.5664687 -7.96575087 358.21016962 -8.83102417 361.89044189 C-10.1677294 367.44125291 -11.81719445 372.582962 -14.08102417 377.83575439 C-15.32822914 381.1208032 -15.91486634 384.44643012 -16.52243042 387.89825439 C-16.95602417 390.14044189 -16.95602417 390.14044189 -18.01852417 393.26544189 C-18.83416615 395.76674397 -19.22488488 397.86065751 -19.51852417 400.45294189 C-19.95602417 404.14044189 -19.95602417 404.14044189 -20.95602417 405.14044189 C-21.44712673 407.32081892 -21.89851936 409.51018899 -22.33102417 411.70294189 C-23.4536913 417.11718388 -24.81796371 422.04982175 -26.95602417 427.14044189 C-27.61602417 427.14044189 -28.27602417 427.14044189 -28.95602417 427.14044189 C-29.28602417 430.44044189 -29.61602417 433.74044189 -29.95602417 437.14044189 C-32.80160903 434.29485704 -32.20882731 432.40941383 -32.21329308 428.41986656 C-32.21679915 427.71759219 -32.22030522 427.01531782 -32.22391754 426.29176241 C-32.23329626 423.91469701 -32.22829172 421.53787314 -32.22344971 419.16079712 C-32.22718275 417.44885355 -32.23178287 415.73691169 -32.23718035 414.02497256 C-32.24946916 409.30186209 -32.24914299 404.57882213 -32.2467916 399.8556993 C-32.2463849 394.76895147 -32.25740866 389.6822267 -32.26690674 384.5954895 C-32.28355104 374.62144168 -32.28901787 364.64741748 -32.29013149 354.67335694 C-32.29108056 346.56706144 -32.29518378 338.46077377 -32.30153275 330.35448074 C-32.31915626 307.38640656 -32.32837014 284.4183511 -32.3268718 261.4502701 C-32.32679189 260.21091254 -32.32671197 258.97155497 -32.32662964 257.69464111 C-32.32654788 256.45377485 -32.32646612 255.2129086 -32.32638188 253.93444033 C-32.32556916 233.82904251 -32.34470023 213.72371965 -32.37290637 193.61834352 C-32.40162015 172.98872983 -32.41544742 152.35915271 -32.41371882 131.72951853 C-32.41305429 120.14186544 -32.41857393 108.55429086 -32.44007492 96.96665573 C-32.45826713 87.09866675 -32.46265035 77.23079185 -32.44905607 67.36279337 C-32.44251589 62.32689588 -32.44244699 57.29121738 -32.45976257 52.25534058 C-32.47545246 47.64484709 -32.47267147 43.03474697 -32.45519431 38.42426331 C-32.45211534 36.75662613 -32.45579049 35.08895989 -32.46691446 33.42135696 C-32.56265403 18.05041123 -32.56265403 18.05041123 -27.95602417 11.14044189 C-27.29602417 11.14044189 -26.63602417 11.14044189 -25.95602417 11.14044189 C-25.62602417 9.82044189 -25.29602417 8.50044189 -24.95602417 7.14044189 C-23.96602417 7.14044189 -22.97602417 7.14044189 -21.95602417 7.14044189 C-21.58477417 6.21231689 -21.58477417 6.21231689 -21.20602417 5.26544189 C-19.65371724 2.62652012 -18.84615475 2.12917078 -15.95602417 1.14044189 C-10.61311167 0.34730838 -5.40332223 -0.00675019 0 0 Z " fill="#EDB002" transform="translate(99.95602416992188,132.85955810546875)"/>
<path d="M0 0 C141.24 0 282.48 0 428 0 C428 0.66 428 1.32 428 2 C429.32 2 430.64 2 432 2 C432 2.66 432 3.32 432 4 C432.66 4 433.32 4 434 4 C434 6.64 434 9.28 434 12 C435.32 12 436.64 12 438 12 C438 12.66 438 13.32 438 14 C438.66 14 439.32 14 440 14 C440 14.66 440 15.32 440 16 C440.66 16 441.32 16 442 16 C442 16.66 442 17.32 442 18 C442.66 18 443.32 18 444 18 C444 21.3 444 24.6 444 28 C414.96 28 385.92 28 356 28 C356 28.66 356 29.32 356 30 C354.68 30 353.36 30 352 30 C352 30.66 352 31.32 352 32 C350.68 32 349.36 32 348 32 C348 32.66 348 33.32 348 34 C346.68 34 345.36 34 344 34 C344 34.66 344 35.32 344 36 C343.34 36 342.68 36 342 36 C342 36.66 342 37.32 342 38 C340.68 38 339.36 38 338 38 C338 38.66 338 39.32 338 40 C336.68 40 335.36 40 334 40 C334 40.66 334 41.32 334 42 C332.68 42 331.36 42 330 42 C330 42.66 330 43.32 330 44 C329.34 44 328.68 44 328 44 C328 44.66 328 45.32 328 46 C326.68 46 325.36 46 324 46 C324 46.66 324 47.32 324 48 C322.68 48 321.36 48 320 48 C320 48.66 320 49.32 320 50 C319.34 50 318.68 50 318 50 C318 50.66 318 51.32 318 52 C316.68 52 315.36 52 314 52 C314 52.66 314 53.32 314 54 C312.68 54 311.36 54 310 54 C310 54.66 310 55.32 310 56 C309.34 56 308.68 56 308 56 C308 56.66 308 57.32 308 58 C306.68 58 305.36 58 304 58 C304 58.66 304 59.32 304 60 C302.68 60 301.36 60 300 60 C300 60.66 300 61.32 300 62 C299.34 62 298.68 62 298 62 C298 62.66 298 63.32 298 64 C296.68 64 295.36 64 294 64 C294 64.66 294 65.32 294 66 C292.68 66 291.36 66 290 66 C290 66.66 290 67.32 290 68 C288.68 68 287.36 68 286 68 C286 68.66 286 69.32 286 70 C284.68 70 283.36 70 282 70 C282 70.66 282 71.32 282 72 C280.02 72 278.04 72 276 72 C276 72.66 276 73.32 276 74 C274.77709888 74.00423194 273.55419777 74.00846388 272.29423904 74.01282406 C243.27776529 74.11345714 214.26131312 74.2191583 185.24488099 74.33111694 C181.67497289 74.34488684 178.10506462 74.35861389 174.53515625 74.37231445 C173.46908064 74.37640691 173.46908064 74.37640691 172.38146815 74.38058204 C160.86729575 74.42468047 149.35311358 74.46530606 137.83892408 74.50465261 C126.02800017 74.54509031 114.21709443 74.58924986 102.40619731 74.63687855 C95.77065493 74.66352992 89.13511373 74.68832791 82.49954987 74.70907402 C76.25833611 74.72864134 70.01715705 74.7527855 63.77597427 74.78049088 C61.48137924 74.78986079 59.18677658 74.79753628 56.89216995 74.80341911 C53.76688122 74.81168125 50.64167669 74.82595838 47.51641846 74.84178162 C46.14482696 74.84324878 46.14482696 74.84324878 44.74552655 74.84474558 C43.49000804 74.85295724 43.49000804 74.85295724 42.20912552 74.8613348 C41.12692258 74.86532186 41.12692258 74.86532186 40.02285695 74.86938947 C37.91163983 75.00570518 36.03215468 75.42515489 34 76 C34 76.66 34 77.32 34 78 C32.68 78 31.36 78 30 78 C30 78.66 30 79.32 30 80 C29.34 80 28.68 80 28 80 C28 80.66 28 81.32 28 82 C27.34 82 26.68 82 26 82 C26 82.66 26 83.32 26 84 C25.34 84 24.68 84 24 84 C24 84.66 24 85.32 24 86 C23.34 86 22.68 86 22 86 C21.855625 86.86625 21.71125 87.7325 21.5625 88.625 C21.04166667 91.75 20.52083333 94.875 20 98 C19.34 98 18.68 98 18 98 C18 100.64 18 103.28 18 106 C17.34 106 16.68 106 16 106 C16 108.64 16 111.28 16 114 C15.34 114 14.68 114 14 114 C14 115.98 14 117.96 14 120 C13.34 120 12.68 120 12 120 C12.04125 120.78375 12.0825 121.5675 12.125 122.375 C11.9637033 127.0526044 11.00914339 131.44083432 10 136 C9.34 136 8.68 136 8 136 C8 138.64 8 141.28 8 144 C7.34 144 6.68 144 6 144 C6 145.98 6 147.96 6 150 C5.34 150 4.68 150 4 150 C4 152.64 4 155.28 4 158 C3.34 158 2.68 158 2 158 C2 160.64 2 163.28 2 166 C1.34 166 0.68 166 0 166 C0 168.64 0 171.28 0 174 C-0.66 174 -1.32 174 -2 174 C-2 175.32 -2 176.64 -2 178 C-2.66 178 -3.32 178 -4 178 C-4 180.64 -4 183.28 -4 186 C-4.66 186 -5.32 186 -6 186 C-6.04668898 162.60000727 -6.08197362 139.20002151 -6.10362434 115.79999161 C-6.11394366 104.93533014 -6.1280165 94.07069759 -6.15087891 83.20605469 C-6.17079273 73.73813157 -6.18371167 64.27022939 -6.18817699 54.80228591 C-6.19078777 49.78755969 -6.19693786 44.77289339 -6.21146011 39.75818634 C-6.2250123 35.04033204 -6.22922743 30.32256246 -6.22621536 25.60469055 C-6.22676659 23.87125437 -6.23075808 22.13781543 -6.23841095 20.40439606 C-6.24833525 18.04099732 -6.24597815 15.67792006 -6.24050903 13.31451416 C-6.24633472 12.62579483 -6.2521604 11.93707551 -6.25816262 11.2274859 C-6.23569529 7.64490072 -5.94761021 5.05071428 -4 2 C-2.68 2 -1.36 2 0 2 C0 1.34 0 0.68 0 0 Z " fill="#FEFEFD" transform="translate(118,226)"/>
<path d="M0 0 C141.24 0 282.48 0 428 0 C428 0.66 428 1.32 428 2 C429.32 2 430.64 2 432 2 C432 2.66 432 3.32 432 4 C432.66 4 433.32 4 434 4 C434 6.64 434 9.28 434 12 C294.08 12 154.16 12 10 12 C10 12.66 10 13.32 10 14 C9.195625 14.474375 8.39125 14.94875 7.5625 15.4375 C4.7081924 16.79983672 4.7081924 16.79983672 4 20 C3.90981324 21.71283272 3.87803881 23.42900627 3.87974548 25.14421082 C3.87837082 26.20851822 3.87699615 27.27282562 3.87557983 28.36938477 C3.87917511 29.53679199 3.88277039 30.70419922 3.88647461 31.90698242 C3.88632858 33.13637039 3.88618256 34.36575836 3.8860321 35.63240051 C3.88660984 39.00404012 3.89162888 42.37561866 3.89860606 45.74724746 C3.90485274 49.27064952 3.90544444 52.79405237 3.90663147 56.31745911 C3.9097409 62.9897353 3.91794908 69.66199512 3.92798096 76.3342641 C3.93915412 83.93031747 3.94465558 91.52637162 3.94967639 99.12243116 C3.960132 114.74829692 3.97772395 130.37414635 4 146 C4.66 146 5.32 146 6 146 C6 147.32 6 148.64 6 150 C5.34 150 4.68 150 4 150 C4 152.64 4 155.28 4 158 C3.34 158 2.68 158 2 158 C2 160.64 2 163.28 2 166 C1.34 166 0.68 166 0 166 C0 168.64 0 171.28 0 174 C-0.66 174 -1.32 174 -2 174 C-2 175.32 -2 176.64 -2 178 C-2.66 178 -3.32 178 -4 178 C-4 180.64 -4 183.28 -4 186 C-4.66 186 -5.32 186 -6 186 C-6.04668898 162.60000727 -6.08197362 139.20002151 -6.10362434 115.79999161 C-6.11394366 104.93533014 -6.1280165 94.07069759 -6.15087891 83.20605469 C-6.17079273 73.73813157 -6.18371167 64.27022939 -6.18817699 54.80228591 C-6.19078777 49.78755969 -6.19693786 44.77289339 -6.21146011 39.75818634 C-6.2250123 35.04033204 -6.22922743 30.32256246 -6.22621536 25.60469055 C-6.22676659 23.87125437 -6.23075808 22.13781543 -6.23841095 20.40439606 C-6.24833525 18.04099732 -6.24597815 15.67792006 -6.24050903 13.31451416 C-6.24633472 12.62579483 -6.2521604 11.93707551 -6.25816262 11.2274859 C-6.23569529 7.64490072 -5.94761021 5.05071428 -4 2 C-2.68 2 -1.36 2 0 2 C0 1.34 0 0.68 0 0 Z " fill="#E7E7E9" transform="translate(118,226)"/>
<path d="M0 0 C0.66 0 1.32 0 2 0 C2 1.32 2 2.64 2 4 C1.34 4 0.68 4 0 4 C0 5.32 0 6.64 0 8 C-0.66 8 -1.32 8 -2 8 C-2 10.64 -2 13.28 -2 16 C-2.66 16 -3.32 16 -4 16 C-4 11.38 -4 6.76 -4 2 C-2.68 2 -1.36 2 0 2 C0 1.34 0 0.68 0 0 Z " fill="#E8E0D3" transform="translate(116,396)"/>
<path d="M0 0 C0.66 0 1.32 0 2 0 C2 3.3 2 6.6 2 10 C1.34 10 0.68 10 0 10 C-0.144375 10.763125 -0.28875 11.52625 -0.4375 12.3125 C-1 15 -1 15 -2 18 C-2.66 18 -3.32 18 -4 18 C-4 16.68 -4 15.36 -4 14 C-3.34 14 -2.68 14 -2 14 C-2 11.36 -2 8.72 -2 6 C-1.34 6 -0.68 6 0 6 C0 4.02 0 2.04 0 0 Z " fill="#F2EECE" transform="translate(654,344)"/>
<path d="M0 0 C0.33 0 0.66 0 1 0 C1 2.64 1 5.28 1 8 C1.66 8 2.32 8 3 8 C3 9.32 3 10.64 3 12 C2.34 12 1.68 12 1 12 C1 14.64 1 17.28 1 20 C0.34 20 -0.32 20 -1 20 C-0.67 13.4 -0.34 6.8 0 0 Z " fill="#F7E9DA" transform="translate(121,364)"/>
<path d="M0 0 C0.33 0.66 0.66 1.32 1 2 C1.66 2 2.32 2 3 2 C2.43697042 5.94120709 1.3208055 8.7508723 -1 12 C-1.66 12 -2.32 12 -3 12 C-3 10.68 -3 9.36 -3 8 C-2.34 8 -1.68 8 -1 8 C-1.020625 7.05125 -1.04125 6.1025 -1.0625 5.125 C-1 2 -1 2 0 0 Z " fill="#FBD429" transform="translate(139,316)"/>
<path d="M0 0 C0.66 0 1.32 0 2 0 C1.34 1.32 0.68 2.64 0 4 C-0.66 4 -1.32 4 -2 4 C-2 4.66 -2 5.32 -2 6 C-3.98 6 -5.96 6 -8 6 C-8 5.34 -8 4.68 -8 4 C-6.68 4 -5.36 4 -4 4 C-4 3.34 -4 2.68 -4 2 C-2.68 2 -1.36 2 0 2 C0 1.34 0 0.68 0 0 Z " fill="#FBD628" transform="translate(456,264)"/>
<path d="M0 0 C1.32 0 2.64 0 4 0 C3.6875 2.375 3.6875 2.375 3 5 C2.01 5.66 1.02 6.32 0 7 C0 4.69 0 2.38 0 0 Z " fill="#F8F4D7" transform="translate(592,566)"/>
<path d="M0 0 C0.66 0 1.32 0 2 0 C1.34 3.3 0.68 6.6 0 10 C-0.66 10 -1.32 10 -2 10 C-2.25 3.375 -2.25 3.375 0 0 Z " fill="#F9D631" transform="translate(590,572)"/>
<path d="M0 0 C0.66 0 1.32 0 2 0 C1.34 2.64 0.68 5.28 0 8 C-0.66 8 -1.32 8 -2 8 C-2 6.02 -2 4.04 -2 2 C-1.34 2 -0.68 2 0 2 C0 1.34 0 0.68 0 0 Z " fill="#F3D63A" transform="translate(612,494)"/>
<path d="M0 0 C1.32 0 2.64 0 4 0 C4 0.66 4 1.32 4 2 C4.99 2.33 5.98 2.66 7 3 C5.35 3.33 3.7 3.66 2 4 C2 3.34 2 2.68 2 2 C1.34 2 0.68 2 0 2 C0 1.34 0 0.68 0 0 Z " fill="#FAD329" transform="translate(394,298)"/>
<path d="M0 0 C1.32 0 2.64 0 4 0 C3.34 1.32 2.68 2.64 2 4 C0.68 4 -0.64 4 -2 4 C-2 3.34 -2 2.68 -2 2 C-1.34 2 -0.68 2 0 2 C0 1.34 0 0.68 0 0 Z " fill="#F9D51C" transform="translate(428,280)"/>
<path d="M0 0 C2.64 0.66 5.28 1.32 8 2 C8 2.66 8 3.32 8 4 C6.02 4 4.04 4 2 4 C2 3.34 2 2.68 2 2 C1.34 2 0.68 2 0 2 C0 1.34 0 0.68 0 0 Z " fill="#F0BD42" transform="translate(280,134)"/>
</svg>
