<?xml version="1.0" encoding="UTF-8"?>
<svg version="1.1" xmlns="http://www.w3.org/2000/svg" width="180" height="180">
<path d="M0 0 C10.75091735 9.16314842 14.89037047 20.51289869 19.44458008 33.49755859 C20.26829469 35.81322775 21.14250332 38.10320261 22.03125 40.39453125 C23.181895 43.57634532 23.62428868 45.61175405 23.3125 48.9375 C21.9925 49.2675 20.6725 49.5975 19.3125 49.9375 C18.56226562 49.08027344 17.81203125 48.22304688 17.0390625 47.33984375 C5.80734865 34.69769579 -5.92104515 26.59268846 -22.6875 22.9375 C-26.20049948 22.7456881 -29.70765529 22.59426967 -33.22460938 22.5078125 C-39.07974188 22.25843685 -44.19078274 21.27313873 -48.625 17.125 C-50.16345365 13.95759543 -50.36142992 12.4419356 -49.6875 8.9375 C-44.98049792 1.39422743 -37.12683083 -3.99872781 -28.625 -6.4375 C-17.8592732 -8.14634552 -9.02990677 -6.46547542 0 0 Z " fill="#0000C9" transform="translate(99.6875,14.0625)"/>
<path d="M0 0 C3 2 3 2 5 5 C6.44590691 14.31806676 2.04135361 23.54044361 -3.3203125 30.99609375 C-9.746946 38.66321697 -17.40300583 40.99451548 -27.125 42.28125 C-42.64497719 43.05724886 -55.91777595 33.46410546 -68 25 C-68.91007812 24.36449219 -69.82015625 23.72898438 -70.7578125 23.07421875 C-71.58023438 22.47222656 -72.40265625 21.87023437 -73.25 21.25 C-74.34054688 20.45335937 -74.34054688 20.45335937 -75.453125 19.640625 C-77 18 -77 18 -77 14 C-72.9591263 14.41093631 -68.96363192 14.82637263 -64.96484375 15.546875 C-45.99835172 18.95761719 -29.8954873 14.45526505 -14.2902832 3.65869141 C-9.24102716 0.27942726 -6.09384325 -0.74870937 0 0 Z " fill="#0000CA" transform="translate(165,112)"/>
<path d="M0 0 C7.94456157 4.60663741 14.93150258 11.87368833 18.33984375 20.4609375 C20.97880891 30.61080351 18.9357079 41.2291469 13.71484375 50.2109375 C12.25253061 52.2720251 10.69911046 54.12945463 9 56 C8.36320312 56.70511719 7.72640625 57.41023438 7.0703125 58.13671875 C0.58772899 64.93986957 -12.32249921 78.41934776 -21.875 79.25 C-22.57625 79.1675 -23.2775 79.085 -24 79 C-23.43401578 75.14039678 -22.32895873 72.61700588 -20.1875 69.375 C-13.71386731 58.96427819 -11.81182034 48.92996647 -11.75 36.875 C-11.729375 35.89273438 -11.70875 34.91046875 -11.6875 33.8984375 C-11.65467619 27.66191349 -12.50968084 22.37113791 -14.31005859 16.40625 C-15.5895916 11.94373148 -15.70709752 7.57307632 -15 3 C-10.98671349 -2.81234598 -6.10893911 -2.37569854 0 0 Z " fill="#0000CA" transform="translate(151,29)"/>
<path d="M0 0 C1.32 0.33 2.64 0.66 4 1 C4.17015625 2.24394531 4.3403125 3.48789063 4.515625 4.76953125 C7.51918974 25.80082999 14.14092649 42.24867944 31.28125 55.75390625 C38.67490596 61.86217088 38.67490596 61.86217088 40 66.5 C40 70.46232772 39.56387464 72.00881292 37 75 C29.99240017 78.64446342 20.32888031 77.91682664 12.75390625 76.3125 C3.37278411 73.18979638 -2.01484525 68.06077854 -6.77734375 59.48828125 C-14.67300398 43.41947753 -8.60861276 24.51095526 -3.3125 8.5625 C-1.20538721 2.41077441 -1.20538721 2.41077441 0 0 Z " fill="#0000C9" transform="translate(55,95)"/>
<path d="M0 0 C1.91522461 0.01353516 1.91522461 0.01353516 3.86914062 0.02734375 C6.97546716 0.05061211 10.08137572 0.08329845 13.1875 0.125 C13.6825 2.105 13.6825 2.105 14.1875 4.125 C13.42179687 4.43630859 13.42179687 4.43630859 12.640625 4.75390625 C-5.56307024 12.46788349 -19.87319301 23.62676526 -27.56640625 42.18359375 C-28.57835088 44.72324439 -29.50965223 47.26983975 -30.42578125 49.84765625 C-32.08197613 53.76187457 -33.91143557 57.17446778 -37.8125 59.125 C-41.89754893 59.58745837 -44.04725267 59.64109704 -47.5 57.3125 C-54.2340431 48.03044059 -55.301308 37.26422189 -53.8125 26.125 C-51.39778698 16.81804077 -44.18029948 10.38544117 -36.17578125 5.5234375 C-24.83532319 -0.13851382 -12.41991638 -0.16968882 0 0 Z " fill="#0000C9" transform="translate(63.8125,53.875)"/>
<path d="M0 0 C3.55093108 3.68783445 5.10069779 7.22821911 5.36328125 12.33984375 C4.95003504 16.23235643 3.43668383 19.48602537 1.12109375 22.62109375 C0.13109375 23.28109375 -0.85890625 23.94109375 -1.87890625 24.62109375 C-1.21890625 30.56109375 -0.55890625 36.50109375 0.12109375 42.62109375 C-6.47890625 42.62109375 -13.07890625 42.62109375 -19.87890625 42.62109375 C-18.56640625 33.93359375 -18.56640625 33.93359375 -18.11206055 31.22387695 C-17.814104 28.93937264 -17.63583488 26.91605232 -17.87890625 24.62109375 C-20.14233954 21.68989814 -20.14233954 21.68989814 -22.87890625 19.62109375 C-24.32823608 15.27310427 -24.3955969 11.1651403 -23.87890625 6.62109375 C-21.45560383 1.86103542 -18.73251604 -1.31899404 -13.69140625 -3.19140625 C-8.7210272 -3.52276485 -4.10359602 -3.01157878 0 0 Z " fill="#0000C9" transform="translate(101.87890625,70.37890625)"/>
</svg>
